<?xml version="1.0" encoding="iso-8859-1"?>
<!-- Uploaded to: SVG Repo, www.svgrepo.com, Generator: SVG Repo Mixer Tools -->
<svg fill="#000000" height="30px" width="30px" version="1.1" id="Layer_1" xmlns="http://www.w3.org/2000/svg" xmlns:xlink="http://www.w3.org/1999/xlink" 
	 viewBox="0 0 512 512" xml:space="preserve">
<g>
	<g>
		<path d="M111.593,232.881l76.565,25.522c17.441,5.819,37.596,7.517,56.174,4.408l146.853-24.472
			c15.793-2.63,31.902-0.685,46.609,5.614l50.935,21.831C499.708,270.48,512,262.448,512,250.435V116.87
			c0-5.614-2.82-10.848-7.505-13.94c-4.685-3.086-10.603-3.608-15.766-1.408l-50.935,21.831c-14.707,6.299-30.816,8.25-46.609,5.614
			l-146.848-24.472c-18.406-3.086-38.465-1.5-56.174,4.408l-76.571,25.522c-6.82,2.272-11.418,8.652-11.418,15.836v18.087H66.783
			v-71.25c19.391-6.914,33.391-25.274,33.391-47.01C100.174,22.468,77.706,0,50.087,0S0,22.468,0,50.087
			c0,21.737,14,40.096,33.391,47.01v398.207c0,9.223,7.473,16.696,16.696,16.696s16.696-7.473,16.696-16.696v-92.438h33.391v14.525
			c0,7.185,4.598,13.566,11.419,15.838l76.565,25.522c17.441,5.819,37.596,7.518,56.174,4.408l146.853-24.472
			c15.793-2.625,31.902-0.696,46.609,5.614l50.935,21.831C499.72,470.833,512,462.776,512,450.783V317.217
			c0-11.961-12.245-20.06-23.271-15.348l-50.935,21.831c-14.707,6.304-30.816,8.233-46.609,5.614l-146.848-24.472
			c-18.853-3.157-39.004-1.326-56.174,4.408l-76.571,25.522c-6.82,2.272-11.418,8.652-11.418,15.836v18.977H66.783V201.294h33.391
			v15.75C100.174,224.228,104.772,230.609,111.593,232.881z M434.087,159.725c11.46-2.961,14.53-4.678,44.522-17.535v82.924
			c-30.052-12.883-33.086-14.582-44.522-17.537V159.725z M133.565,162.293l65.158-21.718c0.533-0.177,1.089-0.266,1.625-0.432
			v87.019c-0.538-0.167-1.095-0.256-1.631-0.434l-65.152-21.718V162.293z M434.087,360.075c11.716-3.026,15.586-5.133,44.522-17.537
			v82.924c-29.019-12.44-32.849-14.522-44.522-17.538V360.075z M133.565,362.642l65.158-21.718c0.533-0.177,1.089-0.266,1.625-0.432
			v87.019c-0.538-0.167-1.095-0.257-1.631-0.435l-65.152-21.718V362.642z"/>
	</g>
</g>
</svg>