<?xml version="1.0" encoding="iso-8859-1"?>
<!-- Uploaded to: SVG Repo, www.svgrepo.com, Generator: SVG Repo Mixer Tools -->
<svg fill="#000000" height="30px" width="30px" version="1.1" id="Layer_1" xmlns="http://www.w3.org/2000/svg" xmlns:xlink="http://www.w3.org/1999/xlink" 
	 viewBox="0 0 512 512" xml:space="preserve">
<g>
	<g>
		<path d="M504.495,303.28c-4.686-3.09-10.611-3.62-15.767-1.408l-50.936,21.829c-14.707,6.303-30.825,8.245-46.608,5.614
			L244.33,304.839c-9.434-1.573-19.043-1.963-28.56-1.2c-0.253,0.019-0.503,0.04-0.751,0.07c-9.124,0.791-18.156,2.636-26.859,5.536
			l-76.57,25.523c-6.818,2.274-11.416,8.653-11.416,15.84v18.087H66.783V201.739h33.391v15.304c0,7.187,4.598,13.566,11.415,15.839
			l76.57,25.523c8.702,2.901,17.732,4.745,26.853,5.535c0.253,0.031,0.509,0.052,0.765,0.071c9.514,0.762,19.12,0.372,28.552-1.2
			l146.854-24.476c15.783-2.629,31.9-0.689,46.609,5.614l50.935,21.829c2.11,0.905,4.346,1.35,6.576,1.35
			c3.221,0,6.423-0.932,9.192-2.758c4.685-3.089,7.505-8.326,7.505-13.938V116.87c0-5.612-2.819-10.849-7.505-13.938
			c-4.686-3.09-10.611-3.619-15.767-1.408l-50.936,21.829c-14.707,6.303-30.825,8.245-46.608,5.614l-146.854-24.476
			c-9.434-1.573-19.043-1.963-28.56-1.2c-0.253,0.019-0.503,0.04-0.751,0.07c-9.124,0.791-18.156,2.636-26.859,5.536l-76.57,25.523
			c-6.817,2.274-11.415,8.653-11.415,15.84v18.087H66.783V97.302c19.433-6.892,33.391-25.45,33.391-47.215
			C100.174,22.469,77.705,0,50.087,0C22.469,0,0,22.469,0,50.087C0,71.853,13.959,90.41,33.391,97.302v398.002
			c0,9.22,7.475,16.696,16.696,16.696s16.696-7.475,16.696-16.696v-93.217h33.391v15.304c0,7.187,4.598,13.566,11.415,15.839
			l76.57,25.523c8.701,2.899,17.73,4.744,26.85,5.535c0.256,0.031,0.514,0.053,0.774,0.072c9.512,0.762,19.118,0.371,28.547-1.201
			l146.854-24.476c15.783-2.63,31.9-0.689,46.609,5.614l50.935,21.829c2.11,0.905,4.346,1.35,6.576,1.35
			c3.221,0,6.423-0.932,9.192-2.758c4.685-3.089,7.505-8.326,7.505-13.938V317.217C512,311.605,509.181,306.369,504.495,303.28z
			 M434.087,159.784c5.728-1.479,11.365-3.385,16.858-5.74l27.664-11.855v82.926l-27.662-11.855
			c-5.494-2.354-11.13-4.261-16.859-5.74V159.784z M233.739,136.742c1.706,0.176,3.408,0.404,5.102,0.687l28.289,4.715v41.509
			c0,9.22,7.475,16.696,16.696,16.696c9.22,0,16.696-7.475,16.696-16.696v-35.943l33.391,5.565v30.378
			c0,9.22,7.475,16.696,16.696,16.696s16.696-7.475,16.696-16.696v-24.813l18.391,3.065c4.985,0.831,9.995,1.319,15,1.502v40.492
			c-5.005,0.183-10.015,0.67-15,1.502l-146.854,24.476c-1.694,0.283-3.396,0.51-5.102,0.687V136.742z M133.565,162.295
			l65.154-21.718c0.54-0.18,1.085-0.346,1.628-0.515v87.181c-0.544-0.169-1.089-0.335-1.628-0.515l-65.154-21.719V162.295z
			 M50.087,66.783c-9.206,0-16.696-7.49-16.696-16.696s7.49-16.696,16.696-16.696s16.696,7.49,16.696,16.696
			S59.293,66.783,50.087,66.783z M200.348,427.591c-0.544-0.169-1.089-0.335-1.628-0.515l-65.154-21.719v-42.714l65.154-21.718
			c0.54-0.18,1.085-0.346,1.628-0.515V427.591z M400.696,404.246c-5.005,0.182-10.015,0.67-15,1.501l-146.854,24.476
			c-1.694,0.283-3.396,0.51-5.102,0.687V337.09c1.706,0.176,3.408,0.404,5.102,0.687l28.289,4.715V384
			c0,9.22,7.475,16.696,16.696,16.696c9.22,0,16.696-7.475,16.696-16.696v-35.944l33.391,5.565V384
			c0,9.22,7.475,16.696,16.696,16.696s16.696-7.475,16.696-16.696v-24.813l18.391,3.065c4.985,0.831,9.995,1.319,15,1.501V404.246z
			 M478.609,425.463l-27.662-11.855c-5.494-2.354-11.13-4.26-16.859-5.74v-47.736c5.728-1.479,11.365-3.385,16.858-5.74
			l27.664-11.855V425.463z"/>
	</g>
</g>
</svg>