<?xml version="1.0" encoding="iso-8859-1"?>
<!-- Uploaded to: SVG Repo, www.svgrepo.com, Generator: SVG Repo Mixer Tools -->
<svg height="30px" width="30px" version="1.1" id="Layer_1" xmlns="http://www.w3.org/2000/svg" xmlns:xlink="http://www.w3.org/1999/xlink" 
	 viewBox="0 0 512.001 512.001" xml:space="preserve">
<path style="fill:#A8331B;" d="M259.958,389.233h-7.916c-2.279,0-4.126-1.847-4.126-4.126v-91.297c0-2.279,1.847-4.126,4.126-4.126
	h7.916c2.279,0,4.126,1.847,4.126,4.126v91.297C264.084,387.385,262.237,389.233,259.958,389.233z"/>
<path style="fill:#FFE666;" d="M273.246,494.335h-34.492c-2.381,0-4.311-1.93-4.311-4.311V381.157c0-2.381,1.93-4.311,4.311-4.311
	h34.492c2.381,0,4.311,1.93,4.311,4.311v108.867C277.557,492.405,275.627,494.335,273.246,494.335z"/>
<path style="fill:#EDBF31;" d="M253.844,494.335h-15.09c-2.381,0-4.311-1.93-4.311-4.311V381.157c0-2.381,1.93-4.311,4.311-4.311
	h15.09V494.335z"/>
<path style="fill:#F75534;" d="M324.793,289.322c2.467,0.435,4.02,2.868,3.435,5.304c-1.685,7.011-4.37,13.631-7.888,19.709
	c-4.344,7.523-9.97,14.206-16.589,19.768c-6.576,5.519-14.121,9.928-22.334,12.913c-4.7,1.714-9.615,2.964-14.691,3.697
	c-3.504,0.507-7.081,0.765-10.725,0.765c-8.924,0-17.483-1.574-25.417-4.463c-8.213-2.985-15.758-7.395-22.334-12.913
	c-6.618-5.562-12.245-12.245-16.589-19.768c-3.519-6.078-6.203-12.698-7.888-19.709c-0.586-2.436,0.968-4.869,3.435-5.304
	l15.081-2.657L256,277.19L324.793,289.322z"/>
<path style="fill:#BD391E;" d="M287.269,343.697c-2.782,1.434-5.648,2.705-8.612,3.784c-3.837,1.401-7.825,2.48-11.933,3.234
	c-3.504,0.507-7.081,0.765-10.725,0.765c-8.924,0-17.483-1.574-25.417-4.463c-8.213-2.985-15.758-7.395-22.334-12.913
	c-6.618-5.562-12.245-12.245-16.589-19.768c-3.519-6.078-6.203-12.698-7.888-19.709c-0.586-2.436,0.968-4.869,3.435-5.304
	l15.081-2.657c1.66,7.458,4.441,14.519,8.17,20.943c4.344,7.523,9.981,14.206,16.589,19.768c6.576,5.519,14.121,9.928,22.344,12.913
	c7.922,2.889,16.481,4.463,25.406,4.463C279.045,344.753,283.216,344.387,287.269,343.697z"/>
<path id="SVGCleanerId_0" style="fill:#F7EDE3;" d="M220.127,179.782c-7.34,2.62-14.314,6.026-20.803,10.1
	c-3.816,2.403-7.458,5.033-10.93,7.88L91.266,81.964c-0.01-0.01-0.01-0.01-0.01-0.022c-1.541-1.833-1.304-4.57,0.55-6.079
	c4.97-4.042,10.1-7.9,15.382-11.566c17.128-11.954,35.765-21.892,55.576-29.481c2.188-0.841,4.646,0.27,5.508,2.425
	c0,0.01,0.01,0.022,0.01,0.032c0.01,0.032,0.022,0.054,0.032,0.087L220.127,179.782z"/>
<path id="SVGCleanerId_1" style="fill:#DBD2CA;" d="M256,21.969v151.626c-7.523,0-14.853,0.776-21.934,2.263
	c-4.775,0.992-9.421,2.307-13.937,3.924L168.314,37.36c-0.01-0.032-0.022-0.054-0.032-0.087c0-0.01-0.01-0.022-0.01-0.032
	c-0.722-2.21,0.442-4.635,2.652-5.4c6.349-2.188,12.795-4.139,19.348-5.842c19.65-5.11,40.216-7.987,61.386-8.332
	C254.049,17.624,256,19.575,256,21.969z"/>
<path id="SVGCleanerId_2" style="fill:#F7EDE3;" d="M477.99,150.151c0,0.01-0.01,0.01-0.01,0.01l-130.446,75.334
	c-3.956-6.596-8.591-12.72-13.819-18.282c-3.159-3.364-6.543-6.521-10.11-9.453l97.14-115.819c1.552-1.821,4.301-2.048,6.101-0.485
	c6.359,5.519,12.45,11.35,18.238,17.461c13.064,13.764,24.641,28.962,34.471,45.336C480.782,146.303,480.06,148.954,477.99,150.151z
	"/>
<path id="SVGCleanerId_3" style="fill:#DBD2CA;" d="M508.43,233.839l-147.735,26.063c-1.681-8.752-4.441-17.116-8.138-24.953
	c-1.52-3.244-3.191-6.392-5.023-9.443v-0.01l130.446-75.334c0,0,0.01,0,0.01-0.01c2.07-1.186,4.743-0.474,5.896,1.616
	c2.846,5.12,5.53,10.348,8.042,15.672c9.076,19.284,15.856,39.861,19.995,61.386C512.376,231.165,510.78,233.417,508.43,233.839z"/>
<path id="SVGCleanerId_4" style="fill:#DBD2CA;" d="M188.395,197.761c-6.09,5.002-11.619,10.66-16.459,16.869
	c-2.705,3.46-5.207,7.093-7.47,10.865L34.02,150.162c0,0-0.01,0-0.01-0.01c-2.07-1.196-2.792-3.848-1.563-5.896
	c4.031-6.716,8.364-13.237,12.978-19.542C57,108.836,70.344,94.328,85.155,81.458c1.8-1.563,4.548-1.336,6.101,0.485
	c0,0.01,0,0.01,0.01,0.022L188.395,197.761z"/>
<path id="SVGCleanerId_5" style="fill:#F7EDE3;" d="M164.466,225.495v0.01c-4.538,7.556-8.149,15.715-10.692,24.339
	c-0.981,3.287-1.811,6.64-2.468,10.057L3.569,233.839c-2.35-0.42-3.946-2.673-3.492-5.012c1.11-5.799,2.425-11.534,3.912-17.181
	c5.572-21.127,13.732-41.208,24.124-59.877c1.154-2.091,3.826-2.802,5.896-1.616c0,0.01,0.01,0.01,0.01,0.01L164.466,225.495z"/>
<path id="SVGCleanerId_6" style="fill:#DBD2CA;" d="M420.745,81.942l-97.14,115.82c-6.834-5.615-14.379-10.39-22.485-14.174
	c-3.007-1.412-6.101-2.673-9.248-3.804l51.814-142.422c0.01-0.032,0.022-0.054,0.032-0.087c0.852-2.178,3.32-3.309,5.519-2.458
	c7.922,3.029,15.65,6.434,23.163,10.208c17.085,8.537,33.102,18.906,47.794,30.838C422.049,77.371,422.286,80.11,420.745,81.942z"/>
<path id="SVGCleanerId_7" style="fill:#F7EDE3;" d="M343.718,37.274c-0.01,0.032-0.022,0.054-0.032,0.087l-51.814,142.422
	c-7.114-2.543-14.563-4.344-22.28-5.325c-4.451-0.572-8.989-0.862-13.592-0.862V21.969c0-2.393,1.951-4.344,4.344-4.301
	c6.564,0.108,13.075,0.452,19.521,1.046c21.245,1.929,41.757,6.403,61.213,13.129C343.298,32.607,344.462,35.054,343.718,37.274z"/>
<g>
	<path id="SVGCleanerId_0_1_" style="fill:#F7EDE3;" d="M220.127,179.782c-7.34,2.62-14.314,6.026-20.803,10.1
		c-3.816,2.403-7.458,5.033-10.93,7.88L91.266,81.964c-0.01-0.01-0.01-0.01-0.01-0.022c-1.541-1.833-1.304-4.57,0.55-6.079
		c4.97-4.042,10.1-7.9,15.382-11.566c17.128-11.954,35.765-21.892,55.576-29.481c2.188-0.841,4.646,0.27,5.508,2.425
		c0,0.01,0.01,0.022,0.01,0.032c0.01,0.032,0.022,0.054,0.032,0.087L220.127,179.782z"/>
</g>
<g>
	<path id="SVGCleanerId_1_1_" style="fill:#DBD2CA;" d="M256,21.969v151.626c-7.523,0-14.853,0.776-21.934,2.263
		c-4.775,0.992-9.421,2.307-13.937,3.924L168.314,37.36c-0.01-0.032-0.022-0.054-0.032-0.087c0-0.01-0.01-0.022-0.01-0.032
		c-0.722-2.21,0.442-4.635,2.652-5.4c6.349-2.188,12.795-4.139,19.348-5.842c19.65-5.11,40.216-7.987,61.386-8.332
		C254.049,17.624,256,19.575,256,21.969z"/>
</g>
<g>
	<path id="SVGCleanerId_2_1_" style="fill:#F7EDE3;" d="M477.99,150.151c0,0.01-0.01,0.01-0.01,0.01l-130.446,75.334
		c-3.956-6.596-8.591-12.72-13.819-18.282c-3.159-3.364-6.543-6.521-10.11-9.453l97.14-115.819c1.552-1.821,4.301-2.048,6.101-0.485
		c6.359,5.519,12.45,11.35,18.238,17.461c13.064,13.764,24.641,28.962,34.471,45.336C480.782,146.303,480.06,148.954,477.99,150.151
		z"/>
</g>
<g>
	<path id="SVGCleanerId_3_1_" style="fill:#DBD2CA;" d="M508.43,233.839l-147.735,26.063c-1.681-8.752-4.441-17.116-8.138-24.953
		c-1.52-3.244-3.191-6.392-5.023-9.443v-0.01l130.446-75.334c0,0,0.01,0,0.01-0.01c2.07-1.186,4.743-0.474,5.896,1.616
		c2.846,5.12,5.53,10.348,8.042,15.672c9.076,19.284,15.856,39.861,19.995,61.386C512.376,231.165,510.78,233.417,508.43,233.839z"
		/>
</g>
<g>
	<path id="SVGCleanerId_4_1_" style="fill:#DBD2CA;" d="M188.395,197.761c-6.09,5.002-11.619,10.66-16.459,16.869
		c-2.705,3.46-5.207,7.093-7.47,10.865L34.02,150.162c0,0-0.01,0-0.01-0.01c-2.07-1.196-2.792-3.848-1.563-5.896
		c4.031-6.716,8.364-13.237,12.978-19.542C57,108.836,70.344,94.328,85.155,81.458c1.8-1.563,4.548-1.336,6.101,0.485
		c0,0.01,0,0.01,0.01,0.022L188.395,197.761z"/>
</g>
<g>
	<path id="SVGCleanerId_5_1_" style="fill:#F7EDE3;" d="M164.466,225.495v0.01c-4.538,7.556-8.149,15.715-10.692,24.339
		c-0.981,3.287-1.811,6.64-2.468,10.057L3.569,233.839c-2.35-0.42-3.946-2.673-3.492-5.012c1.11-5.799,2.425-11.534,3.912-17.181
		c5.572-21.127,13.732-41.208,24.124-59.877c1.154-2.091,3.826-2.802,5.896-1.616c0,0.01,0.01,0.01,0.01,0.01L164.466,225.495z"/>
</g>
<g>
	<path id="SVGCleanerId_6_1_" style="fill:#DBD2CA;" d="M420.745,81.942l-97.14,115.82c-6.834-5.615-14.379-10.39-22.485-14.174
		c-3.007-1.412-6.101-2.673-9.248-3.804l51.814-142.422c0.01-0.032,0.022-0.054,0.032-0.087c0.852-2.178,3.32-3.309,5.519-2.458
		c7.922,3.029,15.65,6.434,23.163,10.208c17.085,8.537,33.102,18.906,47.794,30.838C422.049,77.371,422.286,80.11,420.745,81.942z"
		/>
</g>
<g>
	<path id="SVGCleanerId_7_1_" style="fill:#F7EDE3;" d="M343.718,37.274c-0.01,0.032-0.022,0.054-0.032,0.087l-51.814,142.422
		c-7.114-2.543-14.563-4.344-22.28-5.325c-4.451-0.572-8.989-0.862-13.592-0.862V21.969c0-2.393,1.951-4.344,4.344-4.301
		c6.564,0.108,13.075,0.452,19.521,1.046c21.245,1.929,41.757,6.403,61.213,13.129C343.298,32.607,344.462,35.054,343.718,37.274z"
		/>
</g>
<g>
	<path style="fill:#F75534;" d="M240.327,259.683l-51.932-61.925c9.378-7.696,20.081-13.819,31.733-17.98l27.508,75.604
		c0,0.01,0.01,0.022,0.01,0.032C249.284,259.91,243.442,263.294,240.327,259.683z"/>
	<path style="fill:#F75534;" d="M347.534,225.493v0.01l-70.429,40.668c-0.01,0.01-0.022,0.01-0.032,0.022
		c-4.15,2.318-8.484-2.845-5.4-6.511c0.01-0.01,0.022-0.032,0.032-0.043l51.9-61.882
		C333.09,205.541,341.197,214.919,347.534,225.493z"/>
</g>
<g>
	<path style="fill:#A8331B;" d="M360.695,259.899l-80.68,14.228c-4.743,0.841-7.071-5.508-2.942-7.933
		c0.01-0.01,0.022-0.01,0.032-0.022l70.429-40.668C353.797,235.938,358.313,247.536,360.695,259.899z"/>
	<path style="fill:#A8331B;" d="M234.927,266.194c-0.01-0.01-0.022-0.01-0.032-0.022l-70.429-40.668v-0.01
		c6.338-10.574,14.444-19.951,23.929-27.734l51.932,61.925C243.41,263.349,239.077,268.511,234.927,266.194z"/>
</g>
<path style="fill:#F75534;" d="M231.985,274.127l-80.68-14.228c2.382-12.363,6.898-23.962,13.162-34.395l70.429,40.668
	c0.01,0.01,0.022,0.01,0.032,0.022C239.056,268.619,236.727,274.968,231.985,274.127z"/>
<path style="fill:#A8331B;" d="M323.605,197.758l-51.9,61.882c-0.01,0.01-0.022,0.032-0.032,0.043
	c-3.115,3.611-8.957,0.227-7.318-4.268c0-0.01,0.01-0.022,0.01-0.032l27.508-75.604
	C303.524,183.941,314.228,190.063,323.605,197.758z"/>
<path style="fill:#F75534;" d="M291.872,179.78l-27.508,75.604c0,0.01-0.01,0.022-0.01,0.032c-1.671,4.484-8.354,3.309-8.354-1.498
	v-80.324C268.59,173.593,280.661,175.769,291.872,179.78z"/>
<path style="fill:#A8331B;" d="M256,173.593v80.324c0,4.808-6.683,5.982-8.354,1.498c0-0.01-0.01-0.022-0.01-0.032l-27.508-75.604
	C231.338,175.769,243.41,173.593,256,173.593z"/>
<circle style="fill:#FFE666;" cx="256" cy="277.191" r="25.014"/>
<path style="fill:#EDBF31;" d="M266.404,291.804c-13.815,0-25.014-11.199-25.014-25.014c0-4.229,1.053-8.211,2.907-11.704
	c-7.916,4.199-13.311,12.522-13.311,22.107c0,13.815,11.199,25.014,25.014,25.014c9.586,0,17.907-5.394,22.107-13.31
	C274.615,290.751,270.633,291.804,266.404,291.804z"/>
</svg>